<?xml version="1.0" standalone="no"?>
<!DOCTYPE svg PUBLIC "-//W3C//DTD SVG 1.1//EN" "http://www.w3.org/Graphics/SVG/1.1/DTD/svg11.dtd" >
<svg xmlns="http://www.w3.org/2000/svg">
<metadata></metadata>
<defs>
<font id="mostra_nuova_regularregular" horiz-adv-x="1118" >
<font-face units-per-em="2048" ascent="1638" descent="-410" />
<missing-glyph horiz-adv-x="546" />
<glyph unicode="&#xfb01;" horiz-adv-x="872" d="M20 762v135h136v252q0 117 68.5 190.5t178.5 73.5q28 0 48 -10v-131q-12 4 -33 4q-55 0 -91 -35.5t-36 -91.5v-252h160v-135h-160v-762h-135v762h-136zM604 0v897h133v-897h-133zM604 1057v205h133v-205h-133z" />
<glyph unicode="&#xfb02;" horiz-adv-x="870" d="M20 762v135h136v252q0 117 68.5 190.5t178.5 73.5q28 0 48 -10v-131q-12 4 -33 4q-55 0 -91 -35.5t-36 -91.5v-252h160v-135h-160v-762h-135v762h-136zM604 0v1403h133v-1403h-133z" />
<glyph horiz-adv-x="2048" />
<glyph horiz-adv-x="2048" />
<glyph unicode="&#xd;" horiz-adv-x="2048" />
<glyph unicode=" "  horiz-adv-x="546" />
<glyph unicode="&#x09;" horiz-adv-x="546" />
<glyph unicode="&#xa0;" horiz-adv-x="546" />
<glyph unicode="!" horiz-adv-x="516" d="M154 0v211h208v-211h-208zM188 1120v283h140v-283l-66 -653h-8z" />
<glyph unicode="&#x22;" horiz-adv-x="876" d="M154 1024v379h208v-135zM516 1024v379h207v-135z" />
<glyph unicode="#" horiz-adv-x="1140" d="M49 360v140h205l100 403h-172v139h207l88 361h139l-88 -361h252l90 361h140l-90 -361h172v-139h-205l-101 -403h172v-140h-206l-88 -360h-140l88 360h-252l-90 -360h-139l90 360h-172zM393 500h254l101 403h-254z" />
<glyph unicode="$" horiz-adv-x="634" d="M102 954q0 69 39.5 140t106.5 116l-19 193h156l-12 -143q24 6 55 6q30 0 57 -6v-136q-24 6 -51 6q-79 0 -136.5 -49.5t-57.5 -126.5q0 -54 21.5 -97.5t54 -71t70.5 -60t70.5 -64t54 -83.5t21.5 -117q0 -90 -43.5 -163.5t-117.5 -117.5l14 -180h-156l13 137q-36 -4 -56 -4 q-32 0 -67 6v144q35 -15 67 -15q90 0 148.5 51.5t58.5 141.5q0 41 -16 75t-41.5 59t-56.5 49.5t-62.5 52.5t-57 61.5t-41.5 84t-16 111.5z" />
<glyph unicode="%" horiz-adv-x="1525" d="M96 1126q0 126 90 216t217 90q126 0 216 -90t90 -216t-90 -215.5t-216 -89.5q-127 0 -217 89.5t-90 215.5zM221 1126q0 -75 53.5 -128.5t128.5 -53.5q74 0 127.5 53.5t53.5 128.5t-53.5 128t-127.5 53q-75 0 -128.5 -53t-53.5 -128zM393 0l604 1403h138l-605 -1403h-137z M819 276q0 126 89.5 216t215.5 90t216 -90t90 -216t-90 -215.5t-216 -89.5t-215.5 89.5t-89.5 215.5zM942 276q0 -75 53.5 -127.5t128.5 -52.5t128 52.5t53 127.5t-53 128t-128 53t-128.5 -53t-53.5 -128z" />
<glyph unicode="&#x26;" horiz-adv-x="1333" d="M96 457q0 185 123.5 322t306.5 159l-268 465h682v-139h-440l473 -815l143 251h168l-227 -397l176 -303h-162l-98 168q-78 -99 -180.5 -148t-208.5 -49q-99 0 -189 38.5t-155.5 103.5t-104.5 155t-39 189zM242 457q0 -141 100.5 -241.5t241.5 -100.5q192 0 309 192 l-285 492h-24q-141 0 -241.5 -100.5t-100.5 -241.5z" />
<glyph unicode="'" horiz-adv-x="516" d="M154 1024v379h208v-135z" />
<glyph unicode="(" horiz-adv-x="651" d="M96 700q0 255 114.5 476t311.5 366l74 -98q-174 -130 -273.5 -324.5t-99.5 -419.5q0 -224 100 -418.5t273 -322.5l-74 -100q-198 148 -312 368t-114 473z" />
<glyph unicode=")" horiz-adv-x="651" d="M55 -41q174 128 274.5 323t100.5 418q0 224 -100.5 419t-274.5 325l76 98q196 -146 310 -366.5t114 -475.5q0 -253 -114 -473t-310 -368z" />
<glyph unicode="*" horiz-adv-x="788" d="M55 938l228 115l-228 114l70 121l213 -141l-14 256h139l-14 -254l213 139l69 -121l-227 -114l229 -117l-69 -119l-215 139l14 -256h-139l14 256l-213 -139z" />
<glyph unicode="+" horiz-adv-x="1132" d="M41 637v127h463v463h127v-463h461v-127h-461v-461h-127v461h-463z" />
<glyph unicode="," horiz-adv-x="516" d="M154 -166v377h208v-133z" />
<glyph unicode="-" horiz-adv-x="675" d="M41 389v119h594v-119h-594z" />
<glyph unicode="." horiz-adv-x="516" d="M154 0v211h208v-211h-208z" />
<glyph unicode="/" horiz-adv-x="870" d="M25 -90l704 1632l117 -49l-705 -1634z" />
<glyph unicode="0" horiz-adv-x="1654" d="M96 700q0 148 58 283.5t156 234t233.5 156.5t283.5 58t283.5 -58t234 -156.5t156.5 -234t58 -283.5t-58 -283.5t-156.5 -233t-234 -155t-283.5 -57.5t-283.5 57.5t-233.5 155t-156 233t-58 283.5zM242 700q0 -119 46 -227.5t124.5 -187t187 -124.5t227.5 -46 q159 0 294 78t213.5 213t78.5 294t-78.5 294.5t-213.5 214.5t-294 79t-294 -79t-213 -214.5t-78 -294.5z" />
<glyph unicode="1" horiz-adv-x="548" d="M205 0v1247l139 193v-1440h-139z" />
<glyph unicode="2" horiz-adv-x="774" d="M82 1282v139h10q135 0 252.5 -69t187.5 -188.5t70 -260.5q0 -112 -43 -205l-244 -559h377v-139h-590l330 756q31 70 31 147q0 155 -111 267t-260 112h-10z" />
<glyph unicode="3" horiz-adv-x="778" d="M61 1264v139h547l-202 -461q125 -68 197.5 -190.5t72.5 -264.5t-69.5 -262t-186.5 -189t-252 -69h-10v135h10q151 0 262 113.5t111 271.5q0 140 -92.5 247.5t-231.5 129.5l176 400h-332z" />
<glyph unicode="4" horiz-adv-x="1056" d="M0 270q22 35 223.5 342t389 592.5t188.5 288.5v-1083h221v-140h-221v-270h-139v270h-662zM236 410h426v649z" />
<glyph unicode="5" horiz-adv-x="776" d="M154 -29v133h10q152 0 263.5 114.5t111.5 273.5q0 156 -110.5 270.5t-264.5 114.5h-10v526h512v-139h-373v-273q168 -46 274.5 -185.5t106.5 -313.5q0 -141 -70 -261.5t-187.5 -190t-252.5 -69.5h-10z" />
<glyph unicode="6" horiz-adv-x="993" d="M102 365q0 85 35 163l379 875h154l-285 -658q53 15 111 15q164 0 279.5 -116t115.5 -279t-115.5 -278.5t-279.5 -115.5q-163 0 -278.5 115.5t-115.5 278.5zM246 365q0 -104 73.5 -178t176.5 -74q104 0 178 74t74 178t-74 177.5t-178 73.5q-103 0 -176.5 -73.5 t-73.5 -177.5z" />
<glyph unicode="7" horiz-adv-x="813" d="M41 0l545 1264h-469v139h680l-604 -1403h-152z" />
<glyph unicode="8" horiz-adv-x="1058" d="M123 377q0 111 55 200t148 140q-88 47 -139.5 131.5t-51.5 189.5q0 163 115.5 278.5t279.5 115.5q163 0 278.5 -115.5t115.5 -278.5q0 -105 -51.5 -189.5t-139.5 -131.5q93 -51 148 -140t55 -200q0 -167 -119.5 -286.5t-286.5 -119.5q-168 0 -287.5 119.5t-119.5 286.5z M264 377q0 -109 78 -186.5t188 -77.5q109 0 187 77.5t78 186.5q0 110 -78 188t-187 78q-110 0 -188 -78t-78 -188zM274 1038q0 -106 75 -181t181 -75t181 75t75 181t-75 180t-181 74t-181 -74t-75 -180z" />
<glyph unicode="9" horiz-adv-x="993" d="M102 1038q0 163 116 278.5t280 115.5q163 0 278 -115.5t115 -278.5q0 -86 -35 -164l-379 -874h-153l284 657q-49 -14 -110 -14q-164 0 -280 116t-116 279zM246 1038q0 -104 74 -178t178 -74q103 0 176.5 74t73.5 178t-73.5 178t-176.5 74q-104 0 -178 -74t-74 -178z" />
<glyph unicode=":" horiz-adv-x="516" d="M154 0v211h208v-211h-208zM154 684v213h208v-213h-208z" />
<glyph unicode=";" horiz-adv-x="518" d="M154 -166v377h208v-133zM156 684v213h209v-213h-209z" />
<glyph unicode="&#x3c;" horiz-adv-x="839" d="M61 700l568 568l88 -90l-477 -478l477 -477l-88 -88z" />
<glyph unicode="=" horiz-adv-x="1132" d="M41 385v127h1051v-127h-1051zM41 891v127h1051v-127h-1051z" />
<glyph unicode="&#x3e;" horiz-adv-x="839" d="M123 223l477 477l-477 478l90 90l565 -568l-565 -565z" />
<glyph unicode="?" horiz-adv-x="731" d="M154 0v211h208v-211h-208zM154 481v131q142 0 243 101t101 243t-101 243t-243 101v132q129 0 238.5 -64t173 -173.5t63.5 -238.5q0 -196 -139.5 -335.5t-335.5 -139.5z" />
<glyph unicode="@" horiz-adv-x="1654" d="M96 514q0 148 61 283.5t163 233.5t240.5 156t287.5 58q200 0 362 -80.5t255.5 -227t93.5 -331.5q0 -137 -54 -250.5t-153 -180t-222 -66.5h-83v96q-75 -96 -234 -96t-276 119.5t-117 285.5q0 168 117 288t276 120q158 0 234 -97v72h133v-661q82 0 146.5 58t96 141 t31.5 171q0 160 -79.5 282.5t-216 187.5t-308.5 65t-321 -83.5t-237.5 -228.5t-88.5 -315q0 -128 49 -243.5t132.5 -199t199.5 -133t243 -49.5v-104q-148 0 -283.5 57.5t-233.5 155t-156 233t-58 283.5zM559 514q0 -110 79 -189t189 -79q70 0 128.5 29.5t91.5 78.5v324 q-34 46 -93 76t-127 30q-111 0 -189.5 -79t-78.5 -191z" />
<glyph unicode="A" d="M4 0l555 1446l555 -1446h-149l-76 203h-660l-75 -203h-150zM274 317h570l-285 754z" />
<glyph unicode="B" horiz-adv-x="956" d="M205 0v1403h209q158 0 268.5 -113t110.5 -272q0 -100 -50 -180.5t-141 -124.5q107 -39 169.5 -126t62.5 -200q0 -160 -114 -273.5t-274 -113.5h-241zM344 139h102q103 0 175.5 72.5t72.5 175.5t-72.5 175.5t-175.5 72.5h-102v-496zM344 774h66q101 0 172 72t71 172 t-70 173t-169 73h-70v-490z" />
<glyph unicode="C" horiz-adv-x="1384" d="M96 700q0 148 58 283.5t156 234t233.5 156.5t283.5 58q150 0 283 -56.5t233 -158.5l-100 -101q-81 81 -189 126.5t-227 45.5q-159 0 -294 -79t-213 -214.5t-78 -294.5q0 -119 46 -227.5t124.5 -187t187 -124.5t227.5 -46t227 45.5t189 126.5l100 -103 q-100 -100 -233.5 -156.5t-282.5 -56.5q-148 0 -283.5 57.5t-233.5 155t-156 233t-58 283.5z" />
<glyph unicode="D" horiz-adv-x="1220" d="M205 0v1403h217q190 0 351.5 -94.5t255 -256.5t93.5 -352q0 -143 -55.5 -272.5t-149 -223t-223 -149t-272.5 -55.5h-217zM344 139h78q114 0 218 44.5t179 119.5t119.5 179t44.5 218q0 115 -44.5 219t-119.5 180t-179 120.5t-218 44.5h-78v-1125z" />
<glyph unicode="E" horiz-adv-x="935" d="M205 0v1403h608v-139h-469v-492h469v-139h-469v-494h469v-139h-608z" />
<glyph unicode="F" horiz-adv-x="935" d="M205 0v1403h608v-139h-469v-492h469v-139h-469v-633h-139z" />
<glyph unicode="G" horiz-adv-x="1568" d="M96 700q0 148 58 283.5t156 234t233.5 156.5t283.5 58q146 0 279.5 -56t236.5 -159l-100 -101q-84 82 -192 127t-224 45q-159 0 -294 -79t-213 -214.5t-78 -294.5q0 -119 46 -227.5t124.5 -187t187 -124.5t227.5 -46q164 0 302 84t214 225h-526v139h727 q-33 -170 -136 -305t-255.5 -211t-325.5 -76q-198 0 -366.5 98t-266.5 266t-98 365z" />
<glyph unicode="H" horiz-adv-x="1153" d="M205 0v1403h139v-631h465v631h139v-1403h-139v633h-465v-633h-139z" />
<glyph unicode="I" horiz-adv-x="548" d="M205 0v1403h139v-1403h-139z" />
<glyph unicode="J" horiz-adv-x="708" d="M35 -12v143q17 -10 53 -10q122 0 200.5 77t78.5 199v1006h137v-1006q0 -178 -112.5 -296.5t-303.5 -118.5q-32 0 -53 6z" />
<glyph unicode="K" horiz-adv-x="929" d="M205 0v1403h139v-602l356 602h164l-389 -647l453 -756h-162l-373 618l-49 -83v-535h-139z" />
<glyph unicode="L" horiz-adv-x="843" d="M205 0v1403h139v-1264h469v-139h-608z" />
<glyph unicode="M" horiz-adv-x="1302" d="M205 0v1442l446 -606l447 606v-1442h-140v1020l-307 -416l-307 416v-1020h-139z" />
<glyph unicode="N" horiz-adv-x="1142" d="M205 0v1442l594 -989v950h139v-1442l-594 985v-946h-139z" />
<glyph unicode="O" horiz-adv-x="1654" d="M96 700q0 148 58 283.5t156 234t233.5 156.5t283.5 58t283.5 -58t234 -156.5t156.5 -234t58 -283.5t-58 -283.5t-156.5 -233t-234 -155t-283.5 -57.5t-283.5 57.5t-233.5 155t-156 233t-58 283.5zM242 700q0 -119 46 -227.5t124.5 -187t187 -124.5t227.5 -46 q159 0 294 78t213.5 213t78.5 294t-78.5 294.5t-213.5 214.5t-294 79t-294 -79t-213 -214.5t-78 -294.5z" />
<glyph unicode="P" horiz-adv-x="1007" d="M205 0v1403h215q132 0 243.5 -65t176.5 -176.5t65 -243.5t-65 -244t-176.5 -177t-243.5 -65h-76v-432h-139zM344 571h76q142 0 244 102t102 245q0 142 -102 244t-244 102h-76v-693z" />
<glyph unicode="Q" horiz-adv-x="1654" d="M96 700q0 148 58 283.5t156 234t233.5 156.5t283.5 58t283.5 -58t234 -156.5t156.5 -234t58 -283.5q0 -259 -168 -464l186 -187l-96 -98l-189 186q-203 -166 -465 -166q-148 0 -283.5 57.5t-233.5 155t-156 233t-58 283.5zM242 700q0 -119 46 -227.5t124.5 -187 t187 -124.5t227.5 -46q159 0 294 78t213.5 213t78.5 294t-78.5 294.5t-213.5 214.5t-294 79t-294 -79t-213 -214.5t-78 -294.5z" />
<glyph unicode="R" horiz-adv-x="1038" d="M205 0v1403h215q132 0 243.5 -65t176.5 -176.5t65 -243.5q0 -171 -106 -304t-271 -170l387 -444h-186l-385 438v-438h-139zM344 571h76q142 0 244 102t102 245q0 142 -102 244t-244 102h-76v-693z" />
<glyph unicode="S" horiz-adv-x="673" d="M102 -12v143q20 -10 54 -10q122 0 200 77t78 199q0 66 -30 126.5t-72.5 111.5t-85.5 104.5t-73 127t-30 157.5q0 175 116 286t286 111h10v-135h-10q-111 0 -187.5 -73t-76.5 -189q0 -62 30 -122t72.5 -111t85 -106t72.5 -129.5t30 -158.5q0 -185 -115.5 -300t-299.5 -115 q-38 0 -54 6z" />
<glyph unicode="T" horiz-adv-x="817" d="M35 1264v139h747v-139h-305v-1264h-139v1264h-303z" />
<glyph unicode="U" horiz-adv-x="1153" d="M205 352v1051h139v-1051q0 -97 68 -165t163 -68q97 0 165.5 68t68.5 165v1051h139v-1051q0 -153 -109.5 -261.5t-263.5 -108.5t-262 108t-108 262z" />
<glyph unicode="V" horiz-adv-x="1116" d="M2 1403h150l405 -1071l406 1071h149l-555 -1446z" />
<glyph unicode="W" horiz-adv-x="1591" d="M2 1403h148l323 -1008l320 1008h8l319 -1008l324 1008h145l-469 -1446l-323 999l-324 -999z" />
<glyph unicode="X" horiz-adv-x="1062" d="M20 0l431 711l-418 692h162l337 -557l336 557h162l-418 -692l430 -711h-161l-349 578l-350 -578h-162z" />
<glyph unicode="Y" horiz-adv-x="1089" d="M2 1403h162l381 -629l379 629h161l-471 -785v-618h-139v618z" />
<glyph unicode="Z" horiz-adv-x="950" d="M51 0l625 1264h-606v139h829l-625 -1264h588v-139h-811z" />
<glyph unicode="[" horiz-adv-x="667" d="M205 -113v1629h413v-127h-286v-1375h286v-127h-413z" />
<glyph unicode="\" horiz-adv-x="870" d="M25 1493l116 49l705 -1632l-117 -51z" />
<glyph unicode="]" horiz-adv-x="667" d="M49 14h287v1375h-287v127h414v-1629h-414v127z" />
<glyph unicode="^" horiz-adv-x="657" d="M49 1151l279 281l280 -281l-90 -88l-190 188l-189 -188z" />
<glyph unicode="_" horiz-adv-x="1132" d="M41 -92h1051v-119h-1051v119z" />
<glyph unicode="`" horiz-adv-x="466" d="M49 1274l90 90l279 -281l-90 -88z" />
<glyph unicode="a" horiz-adv-x="1075" d="M82 449q0 128 63 238.5t170 174.5t230 64q151 0 264 -95v66h133v-897h-133v66q-113 -95 -264 -95q-123 0 -230 64t-170 174.5t-63 239.5zM215 449q0 -141 101.5 -242t242.5 -101q144 0 250 109v469q-109 109 -250 109t-242.5 -101.5t-101.5 -242.5z" />
<glyph unicode="b" horiz-adv-x="1075" d="M133 0v1403h133v-572q113 95 264 95q123 0 230 -64t170 -174.5t63 -238.5q0 -129 -63 -239.5t-170 -174.5t-230 -64q-151 0 -264 95v-66h-133zM266 215q106 -109 250 -109q141 0 242.5 101t101.5 242t-101.5 242.5t-242.5 101.5t-250 -109v-469z" />
<glyph unicode="c" horiz-adv-x="958" d="M82 449q0 97 37.5 185t101.5 152t152.5 102t185.5 38q193 0 338 -142l-96 -92q-108 101 -242 101q-141 0 -242.5 -101.5t-101.5 -242.5t101.5 -243t242.5 -102q138 0 242 101l94 -94q-66 -66 -153 -103t-183 -37q-130 0 -240 64t-173.5 174t-63.5 240z" />
<glyph unicode="d" horiz-adv-x="1075" d="M82 449q0 128 63 238.5t170 174.5t230 64q151 0 264 -95v572h133v-1403h-133v66q-113 -95 -264 -95q-123 0 -230 64t-170 174.5t-63 239.5zM215 449q0 -141 101.5 -242t242.5 -101q144 0 250 109v469q-109 109 -250 109t-242.5 -101.5t-101.5 -242.5z" />
<glyph unicode="e" d="M82 449q0 97 37.5 185t101.5 152t152.5 102t185.5 38q127 0 234.5 -60.5t173 -170t69.5 -246.5q0 -38 -2 -58h-815q20 -122 116.5 -204.5t223.5 -82.5q138 0 242 101l94 -94q-66 -66 -153 -103t-183 -37q-130 0 -240 64t-173.5 174t-63.5 240zM219 504h680 q-20 123 -117 206t-223 83t-223 -83t-117 -206z" />
<glyph unicode="f" horiz-adv-x="471" d="M20 762v135h136v252q0 117 68.5 190.5t178.5 73.5q28 0 48 -10v-131q-12 4 -33 4q-55 0 -91 -35.5t-36 -91.5v-252h160v-135h-160v-762h-135v762h-136z" />
<glyph unicode="g" horiz-adv-x="1075" d="M82 449q0 128 63 238.5t170 174.5t230 64q151 0 264 -95v66h133v-868q0 -135 -60 -236t-156 -151t-210 -50q-48 0 -78 9v133q37 -6 70 -6q131 0 216 81.5t85 219.5v37q-113 -95 -264 -95q-123 0 -230 64t-170 174.5t-63 239.5zM215 449q0 -141 101.5 -242t242.5 -101 q144 0 250 109v469q-109 109 -250 109t-242.5 -101.5t-101.5 -242.5z" />
<glyph unicode="h" horiz-adv-x="882" d="M133 0v1403h133v-580q35 45 92 74t125 29q115 0 191 -81.5t76 -217.5v-627h-134v610q0 87 -46 135t-119 48q-59 0 -110.5 -31.5t-74.5 -81.5v-680h-133z" />
<glyph unicode="i" horiz-adv-x="401" d="M133 0v897h133v-897h-133zM133 1057v205h133v-205h-133z" />
<glyph unicode="j" horiz-adv-x="399" d="M-25 -266q24 -4 33 -4q55 0 90 35.5t35 93.5v1038h133v-1038q0 -119 -66.5 -193t-176.5 -74q-26 0 -48 11v131zM133 1057v205h133v-205h-133z" />
<glyph unicode="k" horiz-adv-x="759" d="M133 0v1403h133v-868l264 362h172l-321 -428l348 -469h-170l-264 358l-29 -39v-319h-133z" />
<glyph unicode="l" horiz-adv-x="399" d="M133 0v1403h133v-1403h-133z" />
<glyph unicode="m" horiz-adv-x="1366" d="M133 0v897h133v-74q35 45 92 74t125 29q71 0 130 -33.5t94 -93.5q41 57 109.5 92t144.5 35q119 0 195.5 -81t76.5 -218v-627h-133v610q0 87 -46.5 135t-119.5 48q-61 0 -113.5 -33t-75.5 -84q5 -40 5 -49v-627h-134v610q0 87 -46 135t-119 48q-59 0 -110.5 -31.5 t-74.5 -81.5v-680h-133z" />
<glyph unicode="n" horiz-adv-x="882" d="M133 0v897h133v-74q35 45 92 74t125 29q115 0 191 -81.5t76 -217.5v-627h-134v610q0 87 -46 135t-119 48q-59 0 -110.5 -31.5t-74.5 -81.5v-680h-133z" />
<glyph unicode="o" d="M82 449q0 97 37.5 185t101.5 152t152.5 102t185.5 38q198 0 337.5 -139.5t139.5 -337.5q0 -130 -63.5 -240t-173.5 -174t-240 -64t-240 64t-173.5 174t-63.5 240zM215 449q0 -141 101.5 -243t242.5 -102t242.5 102t101.5 243t-101.5 242.5t-242.5 101.5t-242.5 -101.5 t-101.5 -242.5z" />
<glyph unicode="p" horiz-adv-x="1075" d="M133 -379v1276h133v-66q113 95 264 95q123 0 230 -64t170 -174.5t63 -238.5q0 -129 -63 -239.5t-170 -174.5t-230 -64q-151 0 -264 95v-445h-133zM266 215q106 -109 250 -109q141 0 242.5 101t101.5 242t-101.5 242.5t-242.5 101.5t-250 -109v-469z" />
<glyph unicode="q" horiz-adv-x="1075" d="M82 449q0 128 63 238.5t170 174.5t230 64q151 0 264 -95v68h133v-1280h-133v447q-113 -95 -264 -95q-123 0 -230 64t-170 174.5t-63 239.5zM215 449q0 -141 101.5 -242t242.5 -101q144 0 250 109v469q-109 109 -250 109t-242.5 -101.5t-101.5 -242.5z" />
<glyph unicode="r" horiz-adv-x="503" d="M133 0v897h133v-76q33 45 90.5 75t126.5 30v-133h-6q-64 0 -124.5 -38.5t-86.5 -95.5v-659h-133z" />
<glyph unicode="s" horiz-adv-x="489" d="M82 -25v136q14 -7 41 -7q65 0 105 41.5t40 104.5q0 39 -18.5 78t-44.5 74t-52 72.5t-44.5 87.5t-18.5 106q0 111 78 184.5t197 73.5h6v-133h-6q-56 0 -95 -38.5t-39 -99.5q0 -40 18 -78t44.5 -71t52.5 -69t44 -86t18 -107q0 -116 -81.5 -194.5t-203.5 -78.5q-31 0 -41 4z " />
<glyph unicode="t" horiz-adv-x="491" d="M31 764v133h135v301l135 68v-369h160v-133h-160v-764h-135v764h-135z" />
<glyph unicode="u" horiz-adv-x="882" d="M133 270v627h133v-610q0 -87 46.5 -135t119.5 -48q59 0 109 30.5t75 80.5v682h134v-897h-134v74q-34 -45 -91 -74t-126 -29q-115 0 -190.5 81.5t-75.5 217.5z" />
<glyph unicode="v" horiz-adv-x="749" d="M0 897h145l230 -596l229 596h146l-375 -940z" />
<glyph unicode="w" horiz-adv-x="1173" d="M0 897h145l232 -598l207 602h4l207 -602l233 598h146l-377 -940l-211 604l-211 -604z" />
<glyph unicode="x" horiz-adv-x="768" d="M31 0l274 459l-264 438h156l188 -315l186 315h156l-266 -438l276 -459h-153l-199 338l-201 -338h-153z" />
<glyph unicode="y" horiz-adv-x="763" d="M0 897h145l238 -610l235 610h146l-508 -1276h-145l202 494z" />
<glyph unicode="z" horiz-adv-x="729" d="M55 0l400 764h-381v133h600l-402 -764h398v-133h-615z" />
<glyph unicode="{" horiz-adv-x="671" d="M49 637v129h10q86 0 149.5 65t63.5 156v184q0 146 100.5 249.5t239.5 103.5h11v-129h-11q-85 0 -149 -66t-64 -158v-184q0 -93 -47 -168.5t-131 -118.5q84 -41 131 -116.5t47 -169.5v-185q0 -91 63.5 -157t149.5 -66h11v-127h-11q-139 0 -239.5 103t-100.5 247v185 q0 91 -63.5 157t-149.5 66h-10z" />
<glyph unicode="|" horiz-adv-x="536" d="M205 -113v1629h127v-1629h-127z" />
<glyph unicode="}" horiz-adv-x="671" d="M49 8h10q86 0 149.5 66t63.5 157v185q0 92 47 167.5t132 118.5q-85 41 -132 117t-47 170v185q0 91 -63.5 157t-149.5 66h-10v127h10q139 0 239.5 -103t100.5 -247v-185q0 -91 63.5 -157t149.5 -66h11v-129h-11q-86 0 -149.5 -65t-63.5 -156v-185q0 -145 -100.5 -248.5 t-239.5 -103.5h-10v129z" />
<glyph unicode="~" horiz-adv-x="757" d="M49 600v8q0 93 61 148t152 55q38 0 73.5 -14.5t58 -32.5t50.5 -32.5t52 -14.5q36 0 61 25t25 61h127v-6q0 -94 -61 -150.5t-152 -56.5q-39 0 -75 14.5t-58.5 32.5t-49.5 32.5t-51 14.5q-36 0 -61 -25t-25 -59h-127z" />
<glyph unicode="&#xa1;" horiz-adv-x="516" d="M154 686v213h208v-213h-208zM188 -98l66 651h8l66 -651v-283h-140v283z" />
<glyph unicode="&#xa2;" horiz-adv-x="1095" d="M96 700q0 211 139.5 369t348.5 184l-15 150h156l-12 -150q194 -19 334 -159l-99 -97q-123 123 -295 123q-173 0 -295 -123t-122 -297q0 -172 122 -294.5t295 -122.5q172 0 295 123l99 -99q-142 -139 -332 -157l10 -150h-156l15 150q-209 26 -348.5 183.5t-139.5 366.5z " />
<glyph unicode="&#xa3;" horiz-adv-x="933" d="M123 0v139h131q124 0 202.5 68.5t78.5 189.5q0 62 -26 115t-77 119h-309v139h201q-82 119 -82 254q0 178 115.5 287.5t287.5 109.5h10v-135h-10q-112 0 -188 -72t-76 -190q0 -47 18.5 -95t39.5 -79t59 -80h313v-139h-209q70 -118 70 -234q0 -181 -127 -258h266v-139h-688 z" />
<glyph unicode="&#xa4;" d="M82 303l102 103q-102 130 -102 294q0 162 102 295l-102 105l80 80l102 -105q134 103 295 103q162 0 293 -103l104 105l80 -80l-102 -105q102 -130 102 -295q0 -164 -102 -294l102 -103l-80 -80l-102 103q-134 -103 -295 -103q-164 0 -295 103l-102 -103zM215 700 q0 -141 101.5 -242.5t242.5 -101.5t242.5 101.5t101.5 242.5t-101.5 242.5t-242.5 101.5t-242.5 -101.5t-101.5 -242.5z" />
<glyph unicode="&#xa5;" horiz-adv-x="1083" d="M0 1403h162l381 -629l379 629h161l-393 -633h334v-139h-414v-211h414v-139h-414v-281h-137v281h-414v139h414v211h-414v139h334z" />
<glyph unicode="&#xa6;" horiz-adv-x="536" d="M205 -113v605h127v-605h-127zM205 911v605h127v-605h-127z" />
<glyph unicode="&#xa7;" horiz-adv-x="790" d="M96 768q0 98 56 183.5t151 127.5q-43 85 -43 178q0 140 102 248h156q-60 -43 -97.5 -106.5t-37.5 -138.5q0 -71 32 -133t77.5 -111.5t91.5 -101.5t78 -124.5t32 -158.5q0 -99 -54.5 -181t-152.5 -126q43 -85 43 -172q0 -148 -104 -258h-158q62 43 101 107.5t39 141.5 q0 70 -32 132.5t-78 113t-92 103t-78 123.5t-32 153zM201 760q0 -58 24.5 -111t55 -85.5t75.5 -78.5t68 -77q76 29 121 90.5t45 144.5q0 57 -24.5 109.5t-54.5 85t-75 79t-69 78.5q-75 -27 -120.5 -90t-45.5 -145z" />
<glyph unicode="&#xa8;" horiz-adv-x="595" d="M49 1159q0 38 26.5 65t63.5 27q38 0 64 -27t26 -65q0 -37 -26 -63.5t-64 -26.5q-37 0 -63.5 26.5t-26.5 63.5zM367 1159q0 38 26.5 65t63.5 27t63.5 -27t26.5 -65q0 -37 -26.5 -63.5t-63.5 -26.5t-63.5 26.5t-26.5 63.5z" />
<glyph unicode="&#xa9;" horiz-adv-x="1652" d="M96 700q0 148 58 283.5t156 234t233.5 156.5t283.5 58t283.5 -58t233 -156.5t155 -234t57.5 -283.5t-57.5 -283t-155.5 -233t-233 -155.5t-283 -57.5t-283.5 57.5t-233.5 155t-156 233t-58 283.5zM188 700q0 -130 50.5 -248t136 -204t204 -136.5t248.5 -50.5t248 50.5 t204 136.5t136.5 204t50.5 248t-50.5 248.5t-136.5 204t-204 136t-248 50.5q-174 0 -321 -85.5t-232.5 -232.5t-85.5 -321zM360 700q0 127 62.5 234.5t170 170t234.5 62.5q195 0 330 -135l-96 -96q-96 96 -234 96t-235.5 -97t-97.5 -235q0 -137 97.5 -234t235.5 -97 q139 0 234 98l96 -96q-65 -65 -150 -101.5t-180 -36.5q-127 0 -234.5 62.5t-170 170t-62.5 234.5z" />
<glyph unicode="&#xaa;" horiz-adv-x="944" d="M82 1026q0 165 116 283t275 118q128 0 219 -75v51h119v-756h-119v53q-90 -77 -219 -77q-159 0 -275 118.5t-116 284.5zM137 211v133h674v-133h-674zM203 1026q0 -119 82 -201t200 -82q121 0 207 93v383q-87 90 -207 90q-118 0 -200 -82t-82 -201z" />
<glyph unicode="&#xab;" horiz-adv-x="915" d="M49 449l264 428h144l-262 -428l262 -429h-144zM457 449l264 428h145l-264 -428l264 -429h-145z" />
<glyph unicode="&#xad;" horiz-adv-x="675" d="M41 389v119h594v-119h-594z" />
<glyph unicode="&#xae;" horiz-adv-x="915" d="M82 1061q0 155 111 265t266 110t265 -110t110 -265t-110 -266t-265 -111t-266 111t-111 266zM150 1061q0 -127 91 -218t218 -91t218 91t91 218t-91 218t-218 91t-218 -91t-91 -218zM332 852v428h108q66 0 112 -47t46 -113q0 -43 -23 -81t-61 -58l113 -129h-113l-96 111 v-111h-86zM418 1047h22q30 0 52 21.5t22 51.5q0 31 -21.5 52.5t-52.5 21.5h-22v-147z" />
<glyph unicode="&#xaf;" horiz-adv-x="755" d="M49 1096v127h658v-127h-658z" />
<glyph unicode="&#xb0;" horiz-adv-x="589" d="M51 1188q0 101 72 172.5t172 71.5q101 0 172.5 -71.5t71.5 -172.5t-71.5 -172.5t-172.5 -71.5q-100 0 -172 71.5t-72 172.5zM154 1188q0 -58 41 -99.5t100 -41.5q60 0 101.5 41t41.5 100t-41.5 100t-101.5 41q-59 0 -100 -41.5t-41 -99.5z" />
<glyph unicode="&#xb4;" horiz-adv-x="466" d="M49 1083l279 281l90 -90l-279 -279z" />
<glyph unicode="&#xb6;" horiz-adv-x="907" d="M96 1098q0 126 90 215.5t217 89.5h299v-1516h-63v1452h-174v-1452h-62v906q-128 0 -217.5 89t-89.5 216z" />
<glyph unicode="&#xb7;" horiz-adv-x="516" d="M154 344v211h208v-211h-208z" />
<glyph unicode="&#xb8;" horiz-adv-x="307" d="M61 -90l91 90q84 -84 84 -205t-84 -205l-91 91q48 45 48 114q0 70 -48 115z" />
<glyph unicode="&#xba;" horiz-adv-x="974" d="M82 1024q0 168 119 287t286 119q169 0 287.5 -118.5t118.5 -287.5q0 -166 -119 -286t-287 -120q-167 0 -286 120t-119 286zM111 211v133h755v-133h-755zM201 1024q0 -119 83 -203t203 -84t204.5 84t84.5 203q0 121 -84.5 205t-204.5 84t-203 -84t-83 -205z" />
<glyph unicode="&#xbb;" horiz-adv-x="915" d="M49 20l264 429l-264 428h146l262 -428l-262 -429h-146zM457 20l264 429l-264 428h145l264 -428l-264 -429h-145z" />
<glyph unicode="&#xbf;" horiz-adv-x="731" d="M102 66q0 129 64 238.5t173.5 173t238.5 63.5v-133q-142 0 -243.5 -100.5t-101.5 -241.5q0 -142 101.5 -243.5t243.5 -101.5v-131q-196 0 -336 140t-140 336zM369 686v213h209v-213h-209z" />
<glyph unicode="&#xc0;" d="M4 0l555 1446l555 -1446h-149l-76 203h-660l-75 -203h-150zM274 317h570l-285 754zM375 1731l90 90l278 -281l-90 -88z" />
<glyph unicode="&#xc1;" d="M4 0l555 1446l555 -1446h-149l-76 203h-660l-75 -203h-150zM274 317h570l-285 754zM375 1540l278 281l90 -90l-278 -279z" />
<glyph unicode="&#xc2;" d="M4 0l555 1446l555 -1446h-149l-76 203h-660l-75 -203h-150zM274 317h570l-285 754zM281 1540l278 281l281 -281l-90 -88l-191 188l-188 -188z" />
<glyph unicode="&#xc3;" d="M4 0l555 1446l555 -1446h-149l-76 203h-660l-75 -203h-150zM229 1522v8q0 93 61 148t152 55q38 0 73.5 -15t58 -32.5t50.5 -32.5t52 -15q36 0 61 25t25 61h127v-6q0 -94 -61 -150.5t-152 -56.5q-39 0 -75 15t-58.5 32.5t-49.5 32.5t-51 15q-36 0 -61 -25t-25 -59h-127z M274 317h570l-285 754z" />
<glyph unicode="&#xc4;" d="M4 0l555 1446l555 -1446h-149l-76 203h-660l-75 -203h-150zM274 317h570l-285 754zM311 1622q0 38 26.5 65t63.5 27q38 0 64.5 -27t26.5 -65q0 -37 -26.5 -63.5t-64.5 -26.5q-37 0 -63.5 26.5t-26.5 63.5zM629 1622q0 38 26.5 65t63.5 27t63.5 -27t26.5 -65 q0 -37 -26.5 -63.5t-63.5 -26.5t-63.5 26.5t-26.5 63.5z" />
<glyph unicode="&#xc5;" d="M4 0l555 1446l555 -1446h-149l-76 203h-660l-75 -203h-150zM274 317h570l-285 754zM356 1655q0 85 59 144t144 59t144 -59t59 -144t-59 -144t-144 -59t-144 59t-59 144zM440 1655q0 -49 35 -84t84 -35t84 35t35 84t-35 84t-84 35t-84 -35t-35 -84z" />
<glyph unicode="&#xc6;" horiz-adv-x="1671" d="M0 0l938 1403h610v-139h-469v-492h469v-139h-469v-494h469v-139h-608v203h-639l-133 -203h-168zM379 317h561v846z" />
<glyph unicode="&#xc7;" horiz-adv-x="1384" d="M96 700q0 148 58 283.5t156 234t233.5 156.5t283.5 58q150 0 283 -56.5t233 -158.5l-100 -101q-81 81 -189 126.5t-227 45.5q-159 0 -294 -79t-213 -214.5t-78 -294.5q0 -119 46 -227.5t124.5 -187t187 -124.5t227.5 -46t227 45.5t189 126.5l100 -103q-97 -97 -223 -153 t-268 -60q59 -75 59 -176q0 -121 -84 -205l-90 91q47 44 47 114q0 71 -47 115l62 63q-144 5 -274.5 64.5t-224.5 156t-149 229t-55 277.5z" />
<glyph unicode="&#xc8;" horiz-adv-x="935" d="M205 0v1403h608v-139h-469v-492h469v-139h-469v-494h469v-139h-608zM324 1731l90 90l278 -281l-90 -88z" />
<glyph unicode="&#xc9;" horiz-adv-x="935" d="M205 0v1403h608v-139h-469v-492h469v-139h-469v-494h469v-139h-608zM324 1540l278 281l90 -90l-278 -279z" />
<glyph unicode="&#xca;" horiz-adv-x="935" d="M205 0v1403h608v-139h-469v-492h469v-139h-469v-494h469v-139h-608zM229 1540l279 281l280 -281l-90 -88l-190 188l-189 -188z" />
<glyph unicode="&#xcb;" horiz-adv-x="935" d="M205 0v1403h608v-139h-469v-492h469v-139h-469v-494h469v-139h-608zM260 1622q0 38 26.5 65t63.5 27q38 0 64 -27t26 -65q0 -37 -26 -63.5t-64 -26.5q-37 0 -63.5 26.5t-26.5 63.5zM578 1622q0 38 26.5 65t63.5 27t63.5 -27t26.5 -65q0 -37 -26.5 -63.5t-63.5 -26.5 t-63.5 26.5t-26.5 63.5z" />
<glyph unicode="&#xcc;" horiz-adv-x="548" d="M90 1731l90 90l279 -281l-90 -88zM205 0v1403h139v-1403h-139z" />
<glyph unicode="&#xcd;" horiz-adv-x="548" d="M90 1540l279 281l90 -90l-279 -279zM205 0v1403h139v-1403h-139z" />
<glyph unicode="&#xce;" horiz-adv-x="548" d="M-4 1540l278 281l281 -281l-90 -88l-191 188l-188 -188zM205 0v1403h139v-1403h-139z" />
<glyph unicode="&#xcf;" horiz-adv-x="548" d="M27 1622q0 38 26.5 65t63.5 27q38 0 64 -27t26 -65q0 -37 -26 -63.5t-64 -26.5q-37 0 -63.5 26.5t-26.5 63.5zM205 0v1403h139v-1403h-139zM344 1622q0 38 26.5 65t63.5 27t63.5 -27t26.5 -65q0 -37 -26.5 -63.5t-63.5 -26.5t-63.5 26.5t-26.5 63.5z" />
<glyph unicode="&#xd0;" horiz-adv-x="1220" d="M51 641v125h154v637h217q190 0 351.5 -94.5t255 -256.5t93.5 -352q0 -143 -55.5 -272.5t-149 -223t-223 -149t-272.5 -55.5h-217v641h-154zM344 139h78q114 0 218 44.5t179 119.5t119.5 179t44.5 218q0 115 -44.5 219t-119.5 180t-179 120.5t-218 44.5h-78v-498h315v-125 h-315v-502z" />
<glyph unicode="&#xd1;" horiz-adv-x="1142" d="M205 0v1442l594 -989v950h139v-1442l-594 985v-946h-139zM242 1522v8q0 93 61 148t152 55q38 0 73.5 -15t58 -32.5t50 -32.5t51.5 -15q36 0 61 25t25 61h127v-6q0 -94 -61 -150.5t-152 -56.5q-39 0 -75 15t-58 32.5t-49 32.5t-51 15q-36 0 -61 -25t-25 -59h-127z" />
<glyph unicode="&#xd2;" horiz-adv-x="1654" d="M96 700q0 148 58 283.5t156 234t233.5 156.5t283.5 58t283.5 -58t234 -156.5t156.5 -234t58 -283.5t-58 -283.5t-156.5 -233t-234 -155t-283.5 -57.5t-283.5 57.5t-233.5 155t-156 233t-58 283.5zM242 700q0 -119 46 -227.5t124.5 -187t187 -124.5t227.5 -46 q159 0 294 78t213.5 213t78.5 294t-78.5 294.5t-213.5 214.5t-294 79t-294 -79t-213 -214.5t-78 -294.5zM643 1731l90 90l279 -281l-90 -88z" />
<glyph unicode="&#xd3;" horiz-adv-x="1654" d="M96 700q0 148 58 283.5t156 234t233.5 156.5t283.5 58t283.5 -58t234 -156.5t156.5 -234t58 -283.5t-58 -283.5t-156.5 -233t-234 -155t-283.5 -57.5t-283.5 57.5t-233.5 155t-156 233t-58 283.5zM242 700q0 -119 46 -227.5t124.5 -187t187 -124.5t227.5 -46 q159 0 294 78t213.5 213t78.5 294t-78.5 294.5t-213.5 214.5t-294 79t-294 -79t-213 -214.5t-78 -294.5zM643 1540l279 281l90 -90l-279 -279z" />
<glyph unicode="&#xd4;" horiz-adv-x="1654" d="M96 700q0 148 58 283.5t156 234t233.5 156.5t283.5 58t283.5 -58t234 -156.5t156.5 -234t58 -283.5t-58 -283.5t-156.5 -233t-234 -155t-283.5 -57.5t-283.5 57.5t-233.5 155t-156 233t-58 283.5zM242 700q0 -119 46 -227.5t124.5 -187t187 -124.5t227.5 -46 q159 0 294 78t213.5 213t78.5 294t-78.5 294.5t-213.5 214.5t-294 79t-294 -79t-213 -214.5t-78 -294.5zM549 1540l278 281l281 -281l-90 -88l-191 188l-188 -188z" />
<glyph unicode="&#xd5;" horiz-adv-x="1654" d="M96 700q0 148 58 283.5t156 234t233.5 156.5t283.5 58t283.5 -58t234 -156.5t156.5 -234t58 -283.5t-58 -283.5t-156.5 -233t-234 -155t-283.5 -57.5t-283.5 57.5t-233.5 155t-156 233t-58 283.5zM242 700q0 -119 46 -227.5t124.5 -187t187 -124.5t227.5 -46 q159 0 294 78t213.5 213t78.5 294t-78.5 294.5t-213.5 214.5t-294 79t-294 -79t-213 -214.5t-78 -294.5zM498 1522v8q0 93 61 148t152 55q38 0 73.5 -15t58 -32.5t50 -32.5t51.5 -15q36 0 61 25t25 61h127v-6q0 -94 -61 -150.5t-152 -56.5q-39 0 -75 15t-58 32.5t-49 32.5 t-51 15q-36 0 -61 -25t-25 -59h-127z" />
<glyph unicode="&#xd6;" horiz-adv-x="1654" d="M96 700q0 148 58 283.5t156 234t233.5 156.5t283.5 58t283.5 -58t234 -156.5t156.5 -234t58 -283.5t-58 -283.5t-156.5 -233t-234 -155t-283.5 -57.5t-283.5 57.5t-233.5 155t-156 233t-58 283.5zM242 700q0 -119 46 -227.5t124.5 -187t187 -124.5t227.5 -46 q159 0 294 78t213.5 213t78.5 294t-78.5 294.5t-213.5 214.5t-294 79t-294 -79t-213 -214.5t-78 -294.5zM580 1622q0 38 26.5 65t63.5 27q38 0 64 -27t26 -65q0 -37 -26 -63.5t-64 -26.5q-37 0 -63.5 26.5t-26.5 63.5zM897 1622q0 38 26.5 65t63.5 27t63.5 -27t26.5 -65 q0 -37 -26.5 -63.5t-63.5 -26.5t-63.5 26.5t-26.5 63.5z" />
<glyph unicode="&#xd7;" horiz-adv-x="1079" d="M123 375l328 325l-328 328l90 90l328 -327l325 327l90 -90l-327 -328l327 -325l-90 -90l-325 327l-328 -327z" />
<glyph unicode="&#xd8;" horiz-adv-x="1654" d="M96 700q0 148 58 283.5t156 234t233.5 156.5t283.5 58q260 0 465 -168l127 129l99 -99l-127 -127q80 -97 124 -217.5t44 -249.5q0 -148 -58 -283.5t-156.5 -233t-234 -155t-283.5 -57.5q-262 0 -465 166l-126 -127l-99 99l127 127q-168 205 -168 464zM242 700 q0 -202 125 -362l823 823q-159 127 -363 127q-159 0 -294 -79t-213 -214.5t-78 -294.5zM465 240q160 -125 362 -125q159 0 294 78t213.5 213t78.5 294q0 204 -127 363z" />
<glyph unicode="&#xd9;" horiz-adv-x="1153" d="M205 352v1051h139v-1051q0 -97 68 -165t163 -68q97 0 165.5 68t68.5 165v1051h139v-1051q0 -153 -109.5 -261.5t-263.5 -108.5t-262 108t-108 262zM391 1731l90 90l279 -281l-90 -88z" />
<glyph unicode="&#xda;" horiz-adv-x="1153" d="M205 352v1051h139v-1051q0 -97 68 -165t163 -68q97 0 165.5 68t68.5 165v1051h139v-1051q0 -153 -109.5 -261.5t-263.5 -108.5t-262 108t-108 262zM391 1540l279 281l90 -90l-279 -279z" />
<glyph unicode="&#xdb;" horiz-adv-x="1153" d="M205 352v1051h139v-1051q0 -97 68 -165t163 -68q97 0 165.5 68t68.5 165v1051h139v-1051q0 -153 -109.5 -261.5t-263.5 -108.5t-262 108t-108 262zM297 1540l278 281l281 -281l-90 -88l-191 188l-188 -188z" />
<glyph unicode="&#xdc;" horiz-adv-x="1153" d="M205 352v1051h139v-1051q0 -97 68 -165t163 -68q97 0 165.5 68t68.5 165v1051h139v-1051q0 -153 -109.5 -261.5t-263.5 -108.5t-262 108t-108 262zM328 1622q0 38 26.5 65t63.5 27q38 0 64 -27t26 -65q0 -37 -26 -63.5t-64 -26.5q-37 0 -63.5 26.5t-26.5 63.5zM645 1622 q0 38 26.5 65t63.5 27t63.5 -27t26.5 -65q0 -37 -26.5 -63.5t-63.5 -26.5t-63.5 26.5t-26.5 63.5z" />
<glyph unicode="&#xdd;" horiz-adv-x="1089" d="M2 1403h162l381 -629l379 629h161l-471 -785v-618h-139v618zM360 1540l279 281l90 -90l-278 -279z" />
<glyph unicode="&#xde;" horiz-adv-x="1007" d="M205 0v1403h139v-213h76q132 0 243.5 -65t176.5 -176.5t65 -243.5t-65 -243t-176.5 -175.5t-243.5 -65.5h-76v-221h-139zM344 360h76q143 0 244.5 101.5t101.5 243.5q0 143 -102 244.5t-244 101.5h-76v-691z" />
<glyph unicode="&#xdf;" horiz-adv-x="962" d="M133 0v973q0 128 59 227.5t156.5 151t214.5 51.5q135 0 244 -70l-178 -407q118 -70 185 -187t67 -254q0 -141 -68.5 -259.5t-184.5 -186.5t-251 -68h-10v131h10q152 0 261.5 112t109.5 269q0 134 -75.5 230.5t-180.5 124.5l-23 6l176 416q-45 10 -82 10 q-125 0 -210 -83.5t-85 -213.5v-973h-135z" />
<glyph unicode="&#xe0;" horiz-adv-x="1075" d="M82 449q0 128 63 238.5t170 174.5t230 64q151 0 264 -95v66h133v-897h-133v66q-113 -95 -264 -95q-123 0 -230 64t-170 174.5t-63 239.5zM215 449q0 -141 101.5 -242t242.5 -101q144 0 250 109v469q-109 109 -250 109t-242.5 -101.5t-101.5 -242.5zM375 1274l90 90 l278 -281l-90 -88z" />
<glyph unicode="&#xe1;" horiz-adv-x="1075" d="M82 449q0 128 63 238.5t170 174.5t230 64q151 0 264 -95v66h133v-897h-133v66q-113 -95 -264 -95q-123 0 -230 64t-170 174.5t-63 239.5zM215 449q0 -141 101.5 -242t242.5 -101q144 0 250 109v469q-109 109 -250 109t-242.5 -101.5t-101.5 -242.5zM375 1083l278 281 l90 -90l-278 -279z" />
<glyph unicode="&#xe2;" horiz-adv-x="1075" d="M82 449q0 128 63 238.5t170 174.5t230 64q151 0 264 -95v66h133v-897h-133v66q-113 -95 -264 -95q-123 0 -230 64t-170 174.5t-63 239.5zM215 449q0 -141 101.5 -242t242.5 -101q144 0 250 109v469q-109 109 -250 109t-242.5 -101.5t-101.5 -242.5zM281 1085l278 281 l281 -281l-90 -88l-191 189l-188 -189z" />
<glyph unicode="&#xe3;" horiz-adv-x="1075" d="M82 449q0 128 63 238.5t170 174.5t230 64q151 0 264 -95v66h133v-897h-133v66q-113 -95 -264 -95q-123 0 -230 64t-170 174.5t-63 239.5zM215 449q0 -141 101.5 -242t242.5 -101q144 0 250 109v469q-109 109 -250 109t-242.5 -101.5t-101.5 -242.5zM229 1059v8 q0 93 61 148t152 55q38 0 73.5 -14.5t58 -32.5t50.5 -32.5t52 -14.5q36 0 61 25t25 61h127v-7q0 -94 -61 -150t-152 -56q-39 0 -75 14.5t-58.5 32.5t-49.5 32.5t-51 14.5q-36 0 -61 -25t-25 -59h-127z" />
<glyph unicode="&#xe4;" horiz-adv-x="1075" d="M82 449q0 128 63 238.5t170 174.5t230 64q151 0 264 -95v66h133v-897h-133v66q-113 -95 -264 -95q-123 0 -230 64t-170 174.5t-63 239.5zM215 449q0 -141 101.5 -242t242.5 -101q144 0 250 109v469q-109 109 -250 109t-242.5 -101.5t-101.5 -242.5zM311 1159 q0 38 26.5 65t63.5 27q38 0 64.5 -27t26.5 -65q0 -37 -26.5 -63.5t-64.5 -26.5q-37 0 -63.5 26.5t-26.5 63.5zM629 1159q0 38 26.5 65t63.5 27t63.5 -27t26.5 -65q0 -37 -26.5 -63.5t-63.5 -26.5t-63.5 26.5t-26.5 63.5z" />
<glyph unicode="&#xe5;" horiz-adv-x="1075" d="M82 449q0 128 63 238.5t170 174.5t230 64q151 0 264 -95v66h133v-897h-133v66q-113 -95 -264 -95q-123 0 -230 64t-170 174.5t-63 239.5zM215 449q0 -141 101.5 -242t242.5 -101q144 0 250 109v469q-109 109 -250 109t-242.5 -101.5t-101.5 -242.5zM356 1161q0 85 59 144 t144 59t144 -59t59 -144t-59 -144t-144 -59t-144 59t-59 144zM440 1161q0 -49 35 -84t84 -35t84 35t35 84t-35 84t-84 35t-84 -35t-35 -84z" />
<glyph unicode="&#xe6;" horiz-adv-x="1751" d="M82 449q0 128 63 238.5t170 174.5t230 64q151 0 264 -95v66h133v-66q113 95 264 95q185 0 321 -136t142 -341q0 -38 -2 -58h-725v-178q46 -51 111.5 -80t138.5 -29q138 0 242 101l94 -94q-140 -140 -322 -140q-151 0 -264 95v-66h-133v66q-113 -95 -264 -95 q-123 0 -230 64t-170 174.5t-63 239.5zM215 449q0 -141 101.5 -242t242.5 -101q144 0 250 109v469q-109 109 -250 109t-242.5 -101.5t-101.5 -242.5zM942 504h590q-20 123 -117 206t-223 83q-72 0 -137.5 -29t-112.5 -80v-180z" />
<glyph unicode="&#xe7;" horiz-adv-x="958" d="M82 449q0 97 37.5 185t101.5 152t152.5 102t185.5 38q193 0 338 -142l-96 -92q-108 101 -242 101q-141 0 -242.5 -101.5t-101.5 -242.5t101.5 -243t242.5 -102q138 0 242 101l94 -94q-129 -129 -311 -138q59 -78 59 -178q0 -121 -84 -205l-90 91q47 44 47 114 q0 71 -47 115l61 63q-188 11 -318 148t-130 328z" />
<glyph unicode="&#xe8;" d="M82 449q0 97 37.5 185t101.5 152t152.5 102t185.5 38q127 0 234.5 -60.5t173 -170t69.5 -246.5q0 -38 -2 -58h-815q20 -122 116.5 -204.5t223.5 -82.5q138 0 242 101l94 -94q-66 -66 -153 -103t-183 -37q-130 0 -240 64t-173.5 174t-63.5 240zM219 504h680 q-20 123 -117 206t-223 83t-223 -83t-117 -206zM375 1274l90 90l278 -281l-90 -88z" />
<glyph unicode="&#xe9;" d="M82 449q0 97 37.5 185t101.5 152t152.5 102t185.5 38q127 0 234.5 -60.5t173 -170t69.5 -246.5q0 -38 -2 -58h-815q20 -122 116.5 -204.5t223.5 -82.5q138 0 242 101l94 -94q-66 -66 -153 -103t-183 -37q-130 0 -240 64t-173.5 174t-63.5 240zM219 504h680 q-20 123 -117 206t-223 83t-223 -83t-117 -206zM375 1083l278 281l90 -90l-278 -279z" />
<glyph unicode="&#xea;" d="M82 449q0 97 37.5 185t101.5 152t152.5 102t185.5 38q127 0 234.5 -60.5t173 -170t69.5 -246.5q0 -38 -2 -58h-815q20 -122 116.5 -204.5t223.5 -82.5q138 0 242 101l94 -94q-66 -66 -153 -103t-183 -37q-130 0 -240 64t-173.5 174t-63.5 240zM219 504h680 q-20 123 -117 206t-223 83t-223 -83t-117 -206zM281 1085l278 281l281 -281l-90 -88l-191 189l-188 -189z" />
<glyph unicode="&#xeb;" d="M82 449q0 97 37.5 185t101.5 152t152.5 102t185.5 38q127 0 234.5 -60.5t173 -170t69.5 -246.5q0 -38 -2 -58h-815q20 -122 116.5 -204.5t223.5 -82.5q138 0 242 101l94 -94q-66 -66 -153 -103t-183 -37q-130 0 -240 64t-173.5 174t-63.5 240zM219 504h680 q-20 123 -117 206t-223 83t-223 -83t-117 -206zM311 1159q0 38 26.5 65t63.5 27q38 0 64.5 -27t26.5 -65q0 -37 -26.5 -63.5t-64.5 -26.5q-37 0 -63.5 26.5t-26.5 63.5zM629 1159q0 38 26.5 65t63.5 27t63.5 -27t26.5 -65q0 -37 -26.5 -63.5t-63.5 -26.5t-63.5 26.5 t-26.5 63.5z" />
<glyph unicode="&#xec;" horiz-adv-x="401" d="M14 1274l90 90l279 -281l-90 -88zM133 0v897h133v-897h-133z" />
<glyph unicode="&#xed;" horiz-adv-x="401" d="M14 1083l279 281l90 -90l-279 -279zM133 0v897h133v-897h-133z" />
<glyph unicode="&#xee;" horiz-adv-x="401" d="M-80 1085l279 281l280 -281l-90 -88l-190 189l-189 -189zM133 0v897h133v-897h-133z" />
<glyph unicode="&#xef;" horiz-adv-x="401" d="M-49 1159q0 38 26.5 65t63.5 27q38 0 64 -27t26 -65q0 -37 -26 -63.5t-64 -26.5q-37 0 -63.5 26.5t-26.5 63.5zM133 0v897h133v-897h-133zM268 1159q0 38 26.5 65t63.5 27t64 -27t27 -65q0 -37 -27 -63.5t-64 -26.5t-63.5 26.5t-26.5 63.5z" />
<glyph unicode="&#xf0;" horiz-adv-x="1120" d="M82 449q0 97 38 185t102 152t153 102t186 38q89 0 176 -35l-92 211l-268 -101v115l225 84l-86 203h152l65 -154l268 103v-117l-225 -84l221 -508q41 -89 41 -194q0 -129 -63.5 -239t-173.5 -174.5t-240 -64.5t-240.5 64t-174.5 174t-64 240zM213 455q0 -146 103 -249.5 t249 -103.5t250.5 103.5t104.5 249.5t-104.5 250t-250.5 104t-249 -104t-103 -250z" />
<glyph unicode="&#xf1;" horiz-adv-x="882" d="M111 1059v8q0 93 61 148t152 55q48 0 90.5 -23.5t77.5 -47t65 -23.5q36 0 61 25t25 61h127v-7q0 -94 -61 -150t-152 -56q-49 0 -92 23.5t-77.5 47t-63.5 23.5q-36 0 -61 -25t-25 -59h-127zM133 0v897h133v-74q35 45 92 74t125 29q115 0 191 -81.5t76 -217.5v-627h-134 v610q0 87 -46 135t-119 48q-59 0 -110.5 -31.5t-74.5 -81.5v-680h-133z" />
<glyph unicode="&#xf2;" d="M82 449q0 97 37.5 185t101.5 152t152.5 102t185.5 38q198 0 337.5 -139.5t139.5 -337.5q0 -130 -63.5 -240t-173.5 -174t-240 -64t-240 64t-173.5 174t-63.5 240zM215 449q0 -141 101.5 -243t242.5 -102t242.5 102t101.5 243t-101.5 242.5t-242.5 101.5t-242.5 -101.5 t-101.5 -242.5zM375 1274l90 90l278 -281l-90 -88z" />
<glyph unicode="&#xf3;" d="M82 449q0 97 37.5 185t101.5 152t152.5 102t185.5 38q198 0 337.5 -139.5t139.5 -337.5q0 -130 -63.5 -240t-173.5 -174t-240 -64t-240 64t-173.5 174t-63.5 240zM215 449q0 -141 101.5 -243t242.5 -102t242.5 102t101.5 243t-101.5 242.5t-242.5 101.5t-242.5 -101.5 t-101.5 -242.5zM375 1083l278 281l90 -90l-278 -279z" />
<glyph unicode="&#xf4;" d="M82 449q0 97 37.5 185t101.5 152t152.5 102t185.5 38q198 0 337.5 -139.5t139.5 -337.5q0 -130 -63.5 -240t-173.5 -174t-240 -64t-240 64t-173.5 174t-63.5 240zM215 449q0 -141 101.5 -243t242.5 -102t242.5 102t101.5 243t-101.5 242.5t-242.5 101.5t-242.5 -101.5 t-101.5 -242.5zM281 1085l278 281l281 -281l-90 -88l-191 189l-188 -189z" />
<glyph unicode="&#xf5;" d="M82 449q0 97 37.5 185t101.5 152t152.5 102t185.5 38q198 0 337.5 -139.5t139.5 -337.5q0 -130 -63.5 -240t-173.5 -174t-240 -64t-240 64t-173.5 174t-63.5 240zM215 449q0 -141 101.5 -243t242.5 -102t242.5 102t101.5 243t-101.5 242.5t-242.5 101.5t-242.5 -101.5 t-101.5 -242.5zM229 1059v8q0 93 61 148t152 55q38 0 73.5 -14.5t58 -32.5t50.5 -32.5t52 -14.5q36 0 61 25t25 61h127v-7q0 -94 -61 -150t-152 -56q-39 0 -75 14.5t-58.5 32.5t-49.5 32.5t-51 14.5q-36 0 -61 -25t-25 -59h-127z" />
<glyph unicode="&#xf6;" d="M82 449q0 97 37.5 185t101.5 152t152.5 102t185.5 38q198 0 337.5 -139.5t139.5 -337.5q0 -130 -63.5 -240t-173.5 -174t-240 -64t-240 64t-173.5 174t-63.5 240zM215 449q0 -141 101.5 -243t242.5 -102t242.5 102t101.5 243t-101.5 242.5t-242.5 101.5t-242.5 -101.5 t-101.5 -242.5zM311 1159q0 38 26.5 65t63.5 27q38 0 64.5 -27t26.5 -65q0 -37 -26.5 -63.5t-64.5 -26.5q-37 0 -63.5 26.5t-26.5 63.5zM629 1159q0 38 26.5 65t63.5 27t63.5 -27t26.5 -65q0 -37 -26.5 -63.5t-63.5 -26.5t-63.5 26.5t-26.5 63.5z" />
<glyph unicode="&#xf8;" d="M82 51l102 103q-102 130 -102 295q0 97 37.5 185t101.5 152t152.5 102t185.5 38q162 0 293 -103l104 105l80 -80l-104 -105q104 -126 104 -294q0 -130 -63.5 -240t-173.5 -174t-240 -64q-164 0 -295 103l-102 -103zM215 449q0 -112 64 -201l479 479q-92 66 -199 66 q-141 0 -242.5 -101.5t-101.5 -242.5zM358 168q89 -64 201 -64q141 0 242.5 102t101.5 243q0 110 -65 200z" />
<glyph unicode="&#xf9;" horiz-adv-x="882" d="M133 270v627h133v-610q0 -87 46.5 -135t119.5 -48q59 0 109 30.5t75 80.5v682h134v-897h-134v74q-34 -45 -91 -74t-126 -29q-115 0 -190.5 81.5t-75.5 217.5zM256 1276l90 90l279 -281l-90 -88z" />
<glyph unicode="&#xfa;" horiz-adv-x="882" d="M133 270v627h133v-610q0 -87 46.5 -135t119.5 -48q59 0 109 30.5t75 80.5v682h134v-897h-134v74q-34 -45 -91 -74t-126 -29q-115 0 -190.5 81.5t-75.5 217.5zM256 1085l279 281l90 -90l-279 -279z" />
<glyph unicode="&#xfb;" horiz-adv-x="882" d="M133 270v627h133v-610q0 -87 46.5 -135t119.5 -48q59 0 109 30.5t75 80.5v682h134v-897h-134v74q-34 -45 -91 -74t-126 -29q-115 0 -190.5 81.5t-75.5 217.5zM162 1087l278 281l281 -281l-90 -88l-191 189l-188 -189z" />
<glyph unicode="&#xfc;" horiz-adv-x="882" d="M133 270v627h133v-610q0 -87 46.5 -135t119.5 -48q59 0 109 30.5t75 80.5v682h134v-897h-134v74q-34 -45 -91 -74t-126 -29q-115 0 -190.5 81.5t-75.5 217.5zM193 1161q0 38 26.5 65t63.5 27q38 0 64 -27t26 -65q0 -37 -26 -63.5t-64 -26.5q-37 0 -63.5 26.5t-26.5 63.5z M510 1161q0 38 26.5 65t63.5 27t63.5 -27t26.5 -65q0 -37 -26.5 -63.5t-63.5 -26.5t-63.5 26.5t-26.5 63.5z" />
<glyph unicode="&#xfd;" horiz-adv-x="763" d="M0 897h145l238 -610l235 610h146l-508 -1276h-145l202 494zM199 1083l278 281l90 -90l-278 -279z" />
<glyph unicode="&#xfe;" horiz-adv-x="1075" d="M133 -379v1782h133v-572q113 95 264 95q123 0 230 -64t170 -174.5t63 -238.5q0 -129 -63 -239.5t-170 -174.5t-230 -64q-151 0 -264 95v-445h-133zM266 215q106 -109 250 -109q141 0 242.5 101t101.5 242t-101.5 242.5t-242.5 101.5t-250 -109v-469z" />
<glyph unicode="&#xff;" horiz-adv-x="763" d="M0 897h145l238 -610l235 610h146l-508 -1276h-145l202 494zM135 1159q0 38 26.5 65t63.5 27q38 0 64 -27t26 -65q0 -37 -26 -63.5t-64 -26.5q-37 0 -63.5 26.5t-26.5 63.5zM453 1159q0 38 26.5 65t63.5 27t63.5 -27t26.5 -65q0 -37 -26.5 -63.5t-63.5 -26.5t-63.5 26.5 t-26.5 63.5z" />
<glyph unicode="&#x152;" horiz-adv-x="2150" d="M96 700q0 148 58 283.5t156 234t233.5 156.5t283.5 58q187 0 343.5 -91t248.5 -254v316h609v-139h-469v-492h469v-139h-469v-494h469v-139h-609v313q-92 -161 -248.5 -251.5t-343.5 -90.5q-198 0 -366.5 98t-266.5 266t-98 365zM242 700q0 -119 46 -227.5t124.5 -187 t187 -124.5t227.5 -46q159 0 294 78t213.5 213t78.5 294t-78.5 294.5t-213.5 214.5t-294 79t-294 -79t-213 -214.5t-78 -294.5z" />
<glyph unicode="&#x153;" horiz-adv-x="1736" d="M82 449q0 97 37.5 185t101.5 152t152.5 102t185.5 38q175 0 309 -115q134 115 310 115q127 0 234.5 -60.5t173 -170t69.5 -246.5q0 -38 -2 -58h-621q-12 -115 -76 -207q96 -80 222 -80q137 0 241 101l94 -94q-140 -140 -335 -140q-180 0 -312 113q-132 -113 -307 -113 q-130 0 -240 64t-173.5 174t-63.5 240zM215 449q0 -141 101.5 -243t242.5 -102t242.5 102t101.5 243t-101.5 242.5t-242.5 101.5t-242.5 -101.5t-101.5 -242.5zM956 713q64 -95 76 -209h486q-20 123 -117 206t-223 83q-122 0 -222 -80z" />
<glyph unicode="&#x178;" horiz-adv-x="1089" d="M2 1403h162l381 -629l379 629h161l-471 -785v-618h-139v618zM297 1622q0 38 26.5 65t63.5 27q38 0 64 -27t26 -65q0 -37 -26 -63.5t-64 -26.5q-37 0 -63.5 26.5t-26.5 63.5zM614 1622q0 38 27 65t64 27t63.5 -27t26.5 -65q0 -37 -26.5 -63.5t-63.5 -26.5t-64 26.5 t-27 63.5z" />
<glyph unicode="&#x2c6;" horiz-adv-x="657" d="M49 1085l279 281l280 -281l-90 -88l-190 189l-189 -189z" />
<glyph unicode="&#x2dc;" horiz-adv-x="757" d="M49 1059v8q0 93 61 148t152 55q38 0 73.5 -14.5t58 -32.5t50.5 -32.5t52 -14.5q36 0 61 25t25 61h127v-7q0 -94 -61 -150t-152 -56q-39 0 -75 14.5t-58.5 32.5t-49.5 32.5t-51 14.5q-36 0 -61 -25t-25 -59h-127z" />
<glyph unicode="&#x2000;" horiz-adv-x="929" />
<glyph unicode="&#x2001;" horiz-adv-x="1858" />
<glyph unicode="&#x2002;" horiz-adv-x="929" />
<glyph unicode="&#x2003;" horiz-adv-x="1858" />
<glyph unicode="&#x2004;" horiz-adv-x="619" />
<glyph unicode="&#x2005;" horiz-adv-x="464" />
<glyph unicode="&#x2006;" horiz-adv-x="309" />
<glyph unicode="&#x2007;" horiz-adv-x="309" />
<glyph unicode="&#x2008;" horiz-adv-x="232" />
<glyph unicode="&#x2009;" horiz-adv-x="371" />
<glyph unicode="&#x200a;" horiz-adv-x="103" />
<glyph unicode="&#x2010;" horiz-adv-x="675" d="M41 389v119h594v-119h-594z" />
<glyph unicode="&#x2011;" horiz-adv-x="675" d="M41 389v119h594v-119h-594z" />
<glyph unicode="&#x2012;" horiz-adv-x="675" d="M41 389v119h594v-119h-594z" />
<glyph unicode="&#x2013;" horiz-adv-x="972" d="M41 389v119h891v-119h-891z" />
<glyph unicode="&#x2014;" horiz-adv-x="1269" d="M41 389v119h1188v-119h-1188z" />
<glyph unicode="&#x2018;" horiz-adv-x="516" d="M154 1268v135h208v-379z" />
<glyph unicode="&#x2019;" horiz-adv-x="516" d="M154 1024v379h208v-135z" />
<glyph unicode="&#x201a;" horiz-adv-x="516" d="M154 -166v377h208v-133z" />
<glyph unicode="&#x201c;" horiz-adv-x="876" d="M154 1268v135h208v-379zM516 1268v135h207v-379z" />
<glyph unicode="&#x201d;" horiz-adv-x="876" d="M154 1024v379h208v-135zM516 1024v379h207v-135z" />
<glyph unicode="&#x201e;" horiz-adv-x="876" d="M154 -166v377h208v-133zM516 -166v377h207v-133z" />
<glyph unicode="&#x2022;" horiz-adv-x="661" d="M96 449q0 98 69 166.5t167 68.5q97 0 165 -68.5t68 -166.5q0 -97 -68 -165.5t-165 -68.5q-98 0 -167 68.5t-69 165.5z" />
<glyph unicode="&#x2026;" horiz-adv-x="1546" d="M154 0v211h208v-211h-208zM670 0v211h207v-211h-207zM1184 0v211h209v-211h-209z" />
<glyph unicode="&#x202f;" horiz-adv-x="371" />
<glyph unicode="&#x2039;" horiz-adv-x="505" d="M49 449l264 428h144l-262 -428l262 -429h-144z" />
<glyph unicode="&#x203a;" horiz-adv-x="505" d="M49 20l264 429l-264 428h146l262 -428l-262 -429h-146z" />
<glyph unicode="&#x205f;" horiz-adv-x="464" />
<glyph unicode="&#x20ac;" horiz-adv-x="1542" d="M61 457v137h199q-6 53 -6 106q0 54 6 107h-199v139h234q78 215 266.5 350.5t423.5 135.5q150 0 283 -56.5t233 -158.5l-100 -101q-81 81 -189 126.5t-227 45.5q-174 0 -317 -94t-215 -248h573v-139h-618q-9 -52 -9 -107q0 -54 9 -106h618v-137h-573q70 -155 213 -248.5 t319 -93.5q119 0 227 45.5t189 126.5l100 -103q-100 -100 -233.5 -156.5t-282.5 -56.5q-235 0 -424.5 135.5t-265.5 350.5h-234z" />
<glyph unicode="&#x2122;" horiz-adv-x="1249" d="M78 1298v105h373v-105h-136v-598h-102v598h-135zM614 700v721l242 -303l240 303v-721h-103v420l-137 -174l-137 174v-420h-105z" />
<glyph unicode="&#xe000;" horiz-adv-x="901" d="M0 0v901h901v-901h-901z" />
</font>
</defs>
</svg>
